<?xml version="1.0" encoding="iso-8859-1"?>
<!-- Generator: Adobe Illustrator 22.0.1, SVG Export Plug-In . SVG Version: 6.00 Build 0)  -->
<svg version="1.1" id="Calque_1" xmlns="http://www.w3.org/2000/svg" xmlns:xlink="http://www.w3.org/1999/xlink" x="0px" y="0px"
	 viewBox="0 0 75.167 74.333" style="enable-background:new 0 0 75.167 74.333;" xml:space="preserve">
<path d="M19.6,35.063c-9.17,0-16.63-7.46-16.63-16.63s7.46-16.63,16.63-16.63s16.63,7.46,16.63,16.63S28.77,35.063,19.6,35.063z
	 M19.6,4.803c-7.52,0-13.63,6.11-13.63,13.63s6.12,13.63,13.63,13.63s13.63-6.11,13.63-13.63S27.11,4.803,19.6,4.803z M36.48,72.863
	H2.34c-0.53,0-1.03-0.28-1.3-0.74s-0.27-1.03,0-1.49l17.11-30.26c0.27-0.47,0.76-0.76,1.31-0.76l0,0c0.54,0,1.04,0.29,1.31,0.76
	l17.04,30.26c0.26,0.46,0.26,1.03-0.01,1.49c-0.27,0.46-0.76,0.74-1.29,0.74H36.48z M4.91,69.863h29l-14.47-25.71L4.91,69.863z
	 M64.56,72.863H50.24c-5.22,0-9.47-4.25-9.47-9.47v-14.32c0-5.22,4.25-9.47,9.47-9.47h14.32c5.22,0,9.47,4.25,9.47,9.47v14.32
	C74.03,68.613,69.78,72.863,64.56,72.863z M50.24,42.603c-3.57,0-6.47,2.9-6.47,6.47v14.32c0,3.57,2.9,6.47,6.47,6.47h14.32
	c3.57,0,6.47-2.9,6.47-6.47v-14.32c0-3.57-2.9-6.47-6.47-6.47H50.24z M72.53,1.803H42.27c-0.83,0-1.5,0.67-1.5,1.5v30.26
	c0,0.83,0.67,1.5,1.5,1.5h30.26c0.83,0,1.5-0.67,1.5-1.5V3.303C74.03,2.473,73.36,1.803,72.53,1.803z M67.99,13.513L55.8,25.703
	c-0.29,0.29-0.68,0.44-1.06,0.44s-0.77-0.15-1.06-0.44l-6.6-6.6c-0.59-0.59-0.59-1.54,0-2.12c0.59-0.59,1.54-0.59,2.12,0l5.54,5.54
	l11.13-11.13c0.59-0.59,1.54-0.59,2.12,0C68.58,11.983,68.58,12.933,67.99,13.513z"/>
</svg>
