<?xml version="1.0" encoding="utf-8"?>
<!-- Generator: Adobe Illustrator 22.0.1, SVG Export Plug-In . SVG Version: 6.00 Build 0)  -->
<svg version="1.1" id="Calque_1" xmlns="http://www.w3.org/2000/svg" xmlns:xlink="http://www.w3.org/1999/xlink" x="0px" y="0px"
	 viewBox="0 0 59.8 39.5" style="enable-background:new 0 0 59.8 39.5;" xml:space="preserve">
<style type="text/css">
	.st0{fill:#BF8257;}
	.st1{fill:#FEFEFE;}
	.st2{fill:#FFFFFF;}
</style>
<g>
	<path class="st0" d="M40.7,24.6c-0.1,0-0.2,0-0.3,0c-0.2-0.1-0.3-0.1-0.5-0.1c-0.3,0-0.6-0.2-0.8-0.3c-2.5-1.7-5-3.4-7.5-5.1
		c-0.7-0.4-1-1.1-1.2-1.8c-0.1-0.2-0.1-0.4-0.1-0.6c0.2-3.2,0.5-6.3,0.7-9.5c0-0.7,0.4-1.2,0.8-1.7c0.3-0.3,0.6-0.5,1-0.7
		C35.3,3.5,38,2.3,40.6,1c0.4-0.2,0.7-0.3,1.1-0.2c0.4,0,0.8,0,1.2,0.1c0.3,0,0.5,0.2,0.8,0.3c2.5,1.7,5,3.4,7.5,5.1
		c0.7,0.5,1.1,1.2,1.3,2c0,0.2,0,0.3,0,0.5c-0.2,3.1-0.4,6.2-0.7,9.4c-0.1,1.1-0.6,1.8-1.6,2.3c-2.8,1.4-5.5,2.7-8.3,4.1
		c-0.3,0.2-0.7,0.1-1,0.2C40.8,24.6,40.7,24.6,40.7,24.6z"/>
	<path class="st1" d="M46.3,16.2c-1.1-0.1-2-0.6-2.6-1.6c-0.3-0.4-0.4-0.9-0.4-1.4c0-0.6,0.1-1.2,0.5-1.7c0.4-0.6,1-1.1,1.7-1.3
		c0.4-0.1,0.9-0.2,1.3-0.1c1.4,0.2,2.6,1.1,2.8,2.7c0.1,0.9-0.1,1.8-0.8,2.5c-0.6,0.6-1.3,0.9-2.1,1c-0.1,0-0.2,0-0.2,0
		C46.4,16.2,46.4,16.2,46.3,16.2z"/>
	<path class="st1" d="M43.4,15.9c-0.5,0-0.9-0.1-1.4-0.1c-0.1,0-0.2-0.1-0.2-0.1c-0.4-0.7-0.8-1.4-1.2-2.1c-0.1-0.1-0.5-0.3-0.6-0.2
		c-0.1,0,0,0.1-0.1,0.2c0,0.6-0.1,1.3-0.1,1.9c0,0.2-0.1,0.2-0.2,0.2c-0.3,0-0.6-0.1-0.9-0.1c-0.1,0-0.2,0-0.2-0.2
		c0.1-1.8,0.3-3.7,0.4-5.5c0-0.1,0.1-0.2,0.2-0.2c0.7,0.1,1.4,0.1,2.1,0.2c0.7,0.1,1.4,0.6,1.6,1.4c0.2,0.7-0.2,1.5-0.9,1.8
		c-0.1,0.1-0.1,0.1-0.1,0.2c0.5,0.8,1,1.6,1.5,2.5C43.3,15.8,43.3,15.8,43.4,15.9z"/>
	<path class="st1" d="M33.9,12.2c0.1-0.9,0.1-1.8,0.2-2.7c0-0.2,0-0.2,0.2-0.2c0.7,0.1,1.3,0.1,2,0.2c0.8,0.1,1.5,0.6,1.7,1.4
		c0.2,1.1-0.4,1.9-1.5,2.1c-0.4,0.1-0.7,0-1.1,0c-0.2,0-0.2,0-0.2,0.2c0,0.6-0.1,1.3-0.1,1.9c0,0.2-0.1,0.2-0.2,0.2
		c-0.3,0-0.6-0.1-1-0.1c-0.2,0-0.2-0.1-0.2-0.2C33.7,14.1,33.8,13.2,33.9,12.2z"/>
	<path class="st0" d="M44.8,13c0-1.1,1-1.8,1.9-1.7c0.9,0.1,1.5,0.8,1.6,1.7c0,0.6-0.1,1.1-0.5,1.5c-0.3,0.3-0.6,0.5-1.1,0.5
		c-0.7,0.1-1.2-0.2-1.6-0.8C44.8,13.9,44.7,13.4,44.8,13z"/>
	<path class="st0" d="M40,11.5c0-0.2,0-0.4,0-0.6c0-0.1,0-0.1,0.1-0.1c0.3,0,0.7,0,1,0.2c0.4,0.2,0.4,0.9,0,1.1
		c-0.3,0.2-0.7,0.1-1.1,0.1c-0.1,0-0.1-0.1-0.1-0.1C40,11.9,40,11.7,40,11.5z"/>
	<path class="st0" d="M35.3,11.2c0-0.2,0-0.4,0-0.6c0-0.1,0-0.1,0.1-0.1c0.3,0,0.7,0,1,0.2c0.3,0.2,0.3,0.9-0.1,1.1
		c-0.3,0.2-0.7,0.1-1,0.1c-0.1,0-0.1-0.1-0.1-0.1C35.3,11.6,35.3,11.4,35.3,11.2z"/>
</g>
<circle class="st2" cx="49.9" cy="22.3" r="4.1"/>
<path d="M31.4,27.8h-3.2c-1.6,0-3,0.6-4.2,1.7c-1.1,1.1-1.7,2.6-1.7,4.2v2.9c0,0.6,0.5,1,1,1h12.9c0.6,0,1-0.5,1-1v-2.9
	C37.2,30.5,34.6,27.8,31.4,27.8z M50,26.8c2.5,0,4.5-2,4.5-4.5s-2-4.5-4.5-4.5s-4.5,2-4.5,4.5S47.5,26.8,50,26.8z M50,18.8
	c1.9,0,3.5,1.6,3.5,3.5s-1.6,3.5-3.5,3.5s-3.5-1.6-3.5-3.5S48.1,18.8,50,18.8z M51.6,27.8h-3.2c-1.6,0-3,0.6-4.2,1.7
	c-1.1,1.1-1.7,2.6-1.7,4.2v2.9c0,0.6,0.5,1,1,1h12.9c0.6,0,1-0.5,1-1v-2.9C57.5,30.5,54.9,27.8,51.6,27.8z M56.5,36.7h-13v-2.9
	c0-1.3,0.5-2.5,1.4-3.5c0.9-0.9,2.1-1.4,3.5-1.4h3.2c2.7,0,4.9,2.2,4.9,4.9L56.5,36.7z M29.7,26.8c2.5,0,4.5-2,4.5-4.5
	s-2-4.5-4.5-4.5s-4.5,2-4.5,4.5S27.3,26.8,29.7,26.8z M5,22.3c0-2.5,2-4.5,4.5-4.5s4.5,2,4.5,4.5s-2,4.5-4.5,4.5S5,24.8,5,22.3z
	 M17,33.7v2.9c0,0.6-0.5,1-1,1H3c-0.6,0-1-0.5-1-1v-2.9c0-1.6,0.6-3,1.7-4.2c1.1-1.1,2.6-1.7,4.2-1.7h3.2C14.4,27.8,17,30.5,17,33.7
	z"/>
</svg>
