<?xml version="1.0" encoding="utf-8"?>
<!-- Generator: Adobe Illustrator 22.0.1, SVG Export Plug-In . SVG Version: 6.00 Build 0)  -->
<svg version="1.1" id="Calque_1" xmlns="http://www.w3.org/2000/svg" xmlns:xlink="http://www.w3.org/1999/xlink" x="0px" y="0px"
	 viewBox="0 0 2951.9 2716.9" style="enable-background:new 0 0 2951.9 2716.9;" xml:space="preserve">
<style type="text/css">
	.st0{fill:#BF8257;}
	.st1{fill:#FEFEFE;}
</style>
<g>
	<path class="st0" d="M2059.2,1471.1c-6.5-1.5-13-2.9-19.5-4.4c-9.1-5.5-19.8-6.1-29.6-9.1c-18.2-5.6-33.2-15.3-46.9-27.9
		c-135.8-125-271.2-250.3-407.3-375c-36-33-53.4-74.2-58.8-121.6c-1.5-12.9-0.5-25.5,2.4-38.2c42.6-189.4,85.2-378.8,127.7-568.2
		c8.9-39.7,32.5-69.4,63.5-93.7c19.5-15.3,42-25.3,66-32.8c172.1-53.6,344.4-106.7,516.2-161.4c23.6-7.5,47.1-8.4,70.9-3.6
		c23.3,4.7,46.6,9.4,69.2,16.8c16.8,5.5,31.1,14.9,44,26.8c135.8,125,271.4,250.2,407.2,375.1c39.9,36.7,58.6,82,59.6,135.5
		c0.2,10.2-2.3,19.8-4.5,29.5c-41.9,186.6-83.7,373.3-125.8,559.8c-14.4,63.5-54.8,105.5-115.5,124.8
		c-179.9,57.3-360.4,113-540.6,169.3c-21.4,6.7-42,2.7-62.9,0.2C2069.4,1472.5,2064.6,1469.3,2059.2,1471.1z"/>
	<path class="st1" d="M2476.5,1014.6c-67.8-16.3-116-57.1-142.5-120.9c-11.6-28-13.6-58.5-8.4-89.8c6-36.6,18.6-69.1,42.8-97.1
		c30.6-35.3,69.8-54.8,115.4-62.2c27.2-4.4,54.5-3.8,80.9,3.8c85.5,24.4,145.7,92.5,145.3,186.1c-0.2,58.4-23.2,108.4-71.6,144.7
		c-40.3,30.2-85.1,43.8-135.4,38.7c-4.6-0.5-9.4,0.1-14-0.4C2484.8,1016.9,2480.7,1015.6,2476.5,1014.6z"/>
	<path class="st1" d="M2303.1,966.9c-28.8-6.5-55.7-12.7-82.7-18.4c-6.5-1.4-9.7-5.1-11.9-10.7c-18.6-47-37.2-93.9-55.8-140.9
		c-3.5-8.8-27-20.7-35.1-17.3c-4.8,2-4.1,7.2-5,11.1c-8.7,38-17.6,76-25.5,114.2c-2.2,10.6-6,12.9-16.2,10.1
		c-17.9-4.9-36.1-8.6-54.3-12.3c-7.2-1.5-10.7-3.4-8.7-12.1c25.1-110.4,49.9-220.9,74.5-331.5c1.8-8,4.8-9.7,12.6-7.9
		c41.7,9.7,84,17.4,125.2,28.7c42.5,11.8,82.2,47.2,85,98.2c2.5,46.6-24.1,89-68.9,104c-7.5,2.5-8.7,3.8-5.1,12.1
		c23.6,54,46.2,108.5,69.1,162.8C2301.5,959.5,2301.9,962.3,2303.1,966.9z"/>
	<path class="st1" d="M1761.4,660.6c12.2-54.3,24.6-108.5,36.4-162.9c2-9.3,4.8-12.4,15-10c39.8,9.5,80,17.3,119.6,27.4
		c46.7,11.9,87.1,50.1,87.8,100.8c0.9,67.4-43.5,112.6-110.6,113.3c-22.1,0.2-42.9-6.9-64-11.7c-9.3-2.1-12.3,0.5-14.2,9.3
		c-8.2,38.6-17.5,77-25.5,115.6c-2.1,9.9-5.6,12.1-15.3,9.5c-18.8-5-37.9-9.2-57-12.8c-9.2-1.7-11.2-5.3-9-14.3
		C1737,770.1,1749.1,715.3,1761.4,660.6z"/>
	<path class="st0" d="M2413.5,806.4c9.2-64.3,75.2-100.6,129.7-86.8c51,12.9,85.3,59.8,81,114.5c-2.8,35.8-16.4,65.3-44,87.3
		c-19.8,15.7-43.3,23-69.4,22.2c-43.9-1.4-72.8-24.8-91.9-61.7C2406.4,857.5,2405.8,831.4,2413.5,806.4z"/>
	<path class="st0" d="M2139.2,672.3c2.5-11.1,4.9-22.2,7.5-33.3c0.8-3.5,1.1-8.3,6.7-7c20.4,4.7,42,6.4,58.7,21.3
		c20.4,18.1,13.8,57.4-11.5,67.1c-22.9,8.8-44.4-0.6-66.3-5.5c-5.5-1.2-3.3-6-2.6-9.4C2134.1,694.5,2136.7,683.4,2139.2,672.3z"/>
	<path class="st0" d="M1857.8,609c2.5-11.1,5-22.3,7.5-33.4c0.8-3.7,1.3-8.2,6.9-6.8c20.8,5.2,42.1,7.3,59,24.1
		c15.9,15.9,8.9,55.2-15.7,64c-21.7,7.7-41.9-0.5-62.4-5.1c-5.6-1.3-3.4-5.9-2.7-9.4C1852.7,631.3,1855.3,620.2,1857.8,609z"/>
</g>
<g>
	<path d="M1535,508.9v686h-51v-660H113v1371h660v51H87c-14,0-25-11-25-25v-1423c0-14,11-25,25-25h1423
		C1524,483.9,1535,494.9,1535,508.9z M1535,1194.9h686c14,0,25,11,25,25v1423c0,14-11,25-25,25H798c-14,0-25-11-25-25v-686h762
		V1194.9z"/>
	<path d="M773,1778.9c0-14,11-25,25-25s26,11,26,25v102c0,14-12,25-26,25s-25-11-25-25V1778.9z"/>
	<path d="M773,1524.9c0-14,11-25,25-25s26,11,26,25v102c0,14-12,25-26,25s-25-11-25-25V1524.9z"/>
	<path d="M773,1270.9c0-14,11-25,25-25s26,11,26,25v102c0,14-12,25-26,25s-25-11-25-25V1270.9z"/>
	<path d="M1001,1194.9c14,0,26,11,26,25s-12,26-26,26H900c-14,0-26-12-26-26s12-25,26-25H1001z"/>
	<path d="M1235,1194.9c14,0,26,11,26,25s-12,26-26,26h-101c-14,0-26-12-26-26s12-25,26-25H1235z"/>
	<path d="M1458,1194.9c14,0,25,11,25,25s-11,26-25,26h-102c-14,0-25-12-25-26s11-25,25-25H1458z"/>
</g>
</svg>
