<?xml version="1.0" encoding="utf-8"?>
<!-- Generator: Adobe Illustrator 22.0.1, SVG Export Plug-In . SVG Version: 6.00 Build 0)  -->
<svg version="1.1" id="Layer_1" xmlns="http://www.w3.org/2000/svg" xmlns:xlink="http://www.w3.org/1999/xlink" x="0px" y="0px"
	 viewBox="0 0 24.4 41.1" style="enable-background:new 0 0 24.4 41.1;" xml:space="preserve">
<style type="text/css">
	.st0{fill-rule:evenodd;clip-rule:evenodd;fill:#D4D4D4;}
	.st1{fill:#CCCCCC;}
	.st2{fill:#FFFFFF;}
	.st3{fill:#9D9D9C;}
</style>
<g>
	<g>
		<path class="st3" d="M16.8,3c0.9,0,1.9,0.1,2.8,0.1c0.6,0,1.2,0.1,1.8,0.2l0,5.6c-0.2,0-0.3,0-0.4,0c-0.6,0-1.2,0-1.9,0
			c-0.5,0-0.9,0-1.4,0c-1.5,0-2.6,0.6-2.7,2.5c0,1.3-0.1,4.3-0.1,4.5c0.1,0,1.6,0,3,0c0.7,0,1.5,0,2,0c0.4,0,0.8,0,1.2,0
			c-0.3,2.2-0.6,4.2-0.9,6.3h-5.3L14.8,38H8.2l0.1-15.8H3l0-6.3h5.4l0-0.5c0-1.3,0-2.5,0-3.8c0-0.8,0.1-1.6,0.2-2.4
			C9,7.2,9.9,5.6,11.6,4.5c1.4-1,3-1.4,4.7-1.5C16.5,3,16.6,3,16.8,3z"/>
	</g>
</g>
</svg>
