<svg id="Calque_1" data-name="Calque 1" xmlns="http://www.w3.org/2000/svg" viewBox="0 0 411.49 410.92"><title>Logo click noir</title><path d="M102.83,389c.09-3.92,1.87-6.79,4.48-9.4q38.58-38.53,77.11-77.13c5-5,12.11-5.49,16.53-1.17s4.11,11.69-.89,16.67q-24.42,24.32-48.89,48.58-14.25,14.21-28.35,28.56c-5.92,6-15,5.52-18.42-1.1A28.9,28.9,0,0,1,102.83,389Z" transform="translate(-45.84 -46)"/><path d="M204.73,193c-.87,4.82-3,8.76-6,9.87-4.59,1.66-9,2.19-12.94-1.8q-39.1-39.19-78.34-78.28c-4.57-4.57-5.69-11.44-2.3-15.35,4.18-4.83,10.93-6.07,16.2-.92,12.52,12.22,24.83,24.65,37.21,37,13.82,13.78,27.69,27.5,41.35,41.43C202,187.13,203.14,190.29,204.73,193Z" transform="translate(-45.84 -46)"/><path d="M298,192.9c1.45-2.51,2.44-5.47,4.42-7.46Q341.57,146,381,106.87c5.35-5.32,11-4.48,15.49-.66s4.27,11.06-.46,15.8q-39.24,39.37-78.58,78.67c-3.38,3.38-8.78,4.64-12.55,2.7C301,201.36,298.53,198.15,298,192.9Z" transform="translate(-45.84 -46)"/><path d="M112.93,241.51c18.53,0,37.07,0,55.6,0,6.83,0,11.89,5.11,11.4,11.3-.46,5.85-5.54,10.31-11.88,10.32q-28.56,0-57.13,0H57.6c-7.18,0-11.75-4.28-11.76-10.94S50,241.53,57.32,241.52Q85.12,241.48,112.93,241.51Z" transform="translate(-45.84 -46)"/><path d="M262.41,113.1q0,28,0,56c0,5.24-2.7,9-7.16,10.17-5.37,1.46-10.5-.46-12.87-5.29a14.45,14.45,0,0,1-1.07-6.23Q241.2,112.9,241.25,58c0-5.2,1.61-9.3,7-11.29,7-2.58,14.08,2.05,14.11,9.59C262.46,75.24,262.41,94.17,262.41,113.1Z" transform="translate(-45.84 -46)"/><path d="M298.44,309.92c.88-4.83,3-8.76,6.05-9.88,4.59-1.65,8.95-2.19,12.94,1.8q39.1,39.21,78.33,78.29c4.58,4.57,5.69,11.44,2.31,15.35-4.19,4.82-10.93,6.07-16.2.92-12.52-12.22-24.83-24.66-37.22-37C330.84,345.61,317,331.89,303.3,318,301.17,315.78,300,312.62,298.44,309.92Z" transform="translate(-45.84 -46)"/><path d="M390.25,261.41q-27.81,0-55.61,0c-6.82,0-11.89-5.11-11.4-11.31.46-5.85,5.54-10.3,11.88-10.31q28.58,0,57.13,0,26.67,0,53.33,0c7.17,0,11.75,4.28,11.75,10.93s-4.17,10.68-11.47,10.69Q418.05,261.45,390.25,261.41Z" transform="translate(-45.84 -46)"/><path d="M240.76,389.81q0-28,0-56c0-5.24,2.71-8.95,7.17-10.17,5.36-1.46,10.49.46,12.87,5.29a14.56,14.56,0,0,1,1.07,6.22q.09,54.9,0,109.79c0,5.2-1.61,9.29-7,11.29-7,2.57-14.09-2.06-14.12-9.59C240.72,427.68,240.77,408.74,240.76,389.81Z" transform="translate(-45.84 -46)"/></svg>