<?xml version="1.0" encoding="utf-8"?>
<!-- Generator: Adobe Illustrator 22.0.1, SVG Export Plug-In . SVG Version: 6.00 Build 0)  -->
<svg version="1.1" id="Layer_1" xmlns="http://www.w3.org/2000/svg" xmlns:xlink="http://www.w3.org/1999/xlink" x="0px" y="0px"
	 viewBox="0 0 37 37" style="enable-background:new 0 0 37 37;" xml:space="preserve">
<style type="text/css">
	.st0{fill-rule:evenodd;clip-rule:evenodd;fill:#D4D4D4;}
	.st1{fill:#CCCCCC;}
	.st2{fill:#FFFFFF;}
	.st3{fill:#9D9D9C;}
</style>
<g>
	<path class="st3" d="M34.6,12.6c0,0.1,0,0.1,0,0.2c0,0.1,0,0.2,0,0.3c0,0.2,0,0.5,0,0.7c0,0.1,0,0.2,0,0.3c0,0.2,0,0.5,0,0.7
		L31.9,12c0.5,0,0.9,0.1,1.2,0.1C33.6,12.2,34.1,12.4,34.6,12.6z M28.3,11.9C28.3,11.9,28.3,11.9,28.3,11.9C28.2,12,28.2,12,28.1,12
		c-0.2,0.1-0.4,0.1-0.7,0.1c-0.3,0-0.6-0.1-0.9-0.2C27.2,11.9,27.8,11.9,28.3,11.9z"/>
	<g>
		<path class="st3" d="M27.5,8.4C27.5,8.4,27.5,8.4,27.5,8.4c1,0,1.9,0.8,1.9,1.9c0,1-0.8,1.9-1.9,1.9c-1,0-1.8-0.8-1.8-1.9
			C25.6,9.2,26.5,8.4,27.5,8.4z"/>
	</g>
	<g>
		<path class="st3" d="M34.5,10.8c0.2,2.4,0.4,14-0.3,16.7c-1,3.5-3.3,5.6-6.8,6.2C26,33.8,22.4,34,18.8,34c-3.7,0-7.4-0.1-8.6-0.5
			c-3.5-0.9-5.6-3.2-6.2-6.8C3.6,24.2,3.5,12,4.3,9.4c1-3.4,3.3-5.4,6.8-6C12.6,3.1,15.7,3,18.8,3c2.9,0,5.8,0.1,7.6,0.2
			C28.5,3.3,30.4,4,32,5.5C33.5,6.9,34.3,8.7,34.5,10.8z M31.5,26.3c0.4-2.7,0.4-12.7,0.2-15.2c-0.3-2.7-1.9-4.5-4.6-4.9
			c-1.3-0.2-4.5-0.3-7.7-0.3c-3.1,0-6.2,0.1-7.5,0.2c-2.7,0.3-4.5,2-5,4.7c-0.4,2.8-0.4,13.5-0.1,15.6c0.3,2.2,1.6,3.8,3.8,4.4
			c1.2,0.3,4.8,0.5,8.3,0.5c3.3,0,6.4-0.1,7.6-0.2C29.3,30.6,31.1,29,31.5,26.3"/>
	</g>
	<g>
		<path class="st3" d="M19.2,10.6c4.4,0,7.9,3.6,7.9,8c0,4.4-3.6,7.9-8,7.9c-4.4,0-7.9-3.6-7.9-8C11.3,14.1,14.8,10.5,19.2,10.6z
			 M19.1,23.6c2.8,0,5.1-2.3,5.2-5.1c0-2.8-2.2-5.2-5-5.2c0,0,0,0,0,0c-2.8,0-5.1,2.3-5.2,5.1C14,21.3,16.2,23.6,19.1,23.6
			C19.1,23.6,19.1,23.6,19.1,23.6"/>
	</g>
</g>
</svg>
