<?xml version="1.0" encoding="utf-8"?>
<!-- Generator: Adobe Illustrator 22.0.1, SVG Export Plug-In . SVG Version: 6.00 Build 0)  -->
<svg version="1.1" id="Layer_1" xmlns="http://www.w3.org/2000/svg" xmlns:xlink="http://www.w3.org/1999/xlink" x="0px" y="0px"
	 viewBox="0 0 34.3 34.4" style="enable-background:new 0 0 34.3 34.4;" xml:space="preserve">
<style type="text/css">
	.st0{fill-rule:evenodd;clip-rule:evenodd;fill:#D4D4D4;}
	.st1{fill:#CCCCCC;}
	.st2{fill:#FFFFFF;}
	.st3{fill:#9D9D9C;}
</style>
<g>
	<g>
		<path class="st3" d="M6.4,3c1.9,0,3.4,1.5,3.4,3.4c0,1.9-1.5,3.4-3.4,3.4C4.5,9.8,3,8.3,3,6.4C3,4.5,4.6,3,6.4,3z"/>
	</g>
	<g>
		<polygon class="st3" points="9.3,12.4 9.2,31.3 3.3,31.3 3.4,12.4 		"/>
	</g>
	<g>
		<path class="st3" d="M24.3,11.9c6,0,7,3.9,7,9l-0.1,10.4h-5.9l0.1-9.2c0-2.2,0-5-3-5c-3.1,0-3.5,2.4-3.6,4.9l-0.1,9.4h-5.9
			L13,12.4h5.6l0,2.6h0.1C19.5,13.5,21.4,11.9,24.3,11.9z"/>
	</g>
</g>
</svg>
