<?xml version="1.0" encoding="utf-8"?>
<!-- Generator: Adobe Illustrator 22.0.1, SVG Export Plug-In . SVG Version: 6.00 Build 0)  -->
<svg version="1.1" id="Layer_1" xmlns="http://www.w3.org/2000/svg" xmlns:xlink="http://www.w3.org/1999/xlink" x="0px" y="0px"
	 viewBox="0 0 34.3 34.4" style="enable-background:new 0 0 34.3 34.4;" xml:space="preserve">
<g>
	<path d="M30.4,17.8H4.5c-0.8,0-1.4-0.7-1.4-1.4s0.7-1.4,1.4-1.4h25.9c0.8,0,1.4,0.7,1.4,1.4S31.2,17.8,30.4,17.8z"/>
</g>
<g>
	<path d="M30.3,9.2H4.4c-0.8,0-1.4-0.7-1.4-1.4s0.7-1.4,1.4-1.4h25.9c0.8,0,1.4,0.7,1.4,1.4S31,9.2,30.3,9.2z"/>
</g>
<g>
	<path d="M30.3,26.4H4.4c-0.8,0-1.4-0.7-1.4-1.4c0-0.8,0.7-1.4,1.4-1.4h25.9c0.8,0,1.4,0.7,1.4,1.4C31.7,25.8,31,26.4,30.3,26.4z"/>
</g>
</svg>
