<?xml version="1.0" encoding="utf-8"?>
<!-- Generator: Adobe Illustrator 22.0.1, SVG Export Plug-In . SVG Version: 6.00 Build 0)  -->
<svg version="1.1" id="Calque_1" xmlns:serif="http://www.serif.com/"
	 xmlns="http://www.w3.org/2000/svg" xmlns:xlink="http://www.w3.org/1999/xlink" x="0px" y="0px" viewBox="0 0 39.2 45"
	 style="enable-background:new 0 0 39.2 45;" xml:space="preserve">
<style type="text/css">
	.st0{fill:#BF8257;}
	.st1{fill:#FEFEFE;}
	.st2{fill:none;stroke:#000000;stroke-miterlimit:10;}
</style>
<g>
	<path class="st0" d="M15.2,24.2c-0.1,0-0.2,0-0.3,0.1c-0.2,0-0.3,0-0.5,0.1c-0.3,0-0.6,0-0.9-0.1c-2.9-0.9-5.8-1.8-8.7-2.6
		c-0.8-0.2-1.3-0.7-1.7-1.4c-0.1-0.2-0.2-0.4-0.2-0.6c-0.7-3.1-1.4-6.2-2.1-9.3C0.6,9.8,0.7,9.2,1,8.6c0.2-0.4,0.4-0.7,0.7-0.9
		c2.2-2,4.3-4,6.5-6c0.3-0.3,0.6-0.5,1-0.6C9.6,1,10,0.9,10.3,0.8c0.3,0,0.6,0,0.8,0.1c2.9,0.9,5.8,1.8,8.7,2.6
		c0.8,0.3,1.4,0.8,1.8,1.6c0.1,0.1,0.1,0.3,0.1,0.5c0.7,3,1.4,6.1,2.1,9.1c0.2,1-0.1,1.9-0.8,2.7c-2.2,2.1-4.5,4.2-6.8,6.3
		c-0.3,0.2-0.6,0.3-0.9,0.4C15.3,24.2,15.2,24.2,15.2,24.2z"/>
	<path class="st1" d="M18.1,14.6c-1.1,0.2-2.1,0-3-0.8c-0.4-0.3-0.6-0.8-0.8-1.3c-0.2-0.6-0.2-1.1-0.1-1.7c0.2-0.7,0.6-1.3,1.3-1.7
		c0.4-0.3,0.8-0.4,1.2-0.5c1.4-0.2,2.8,0.3,3.5,1.7c0.4,0.9,0.4,1.8,0,2.6c-0.4,0.7-0.9,1.2-1.7,1.5c-0.1,0-0.1,0.1-0.2,0.1
		C18.2,14.5,18.1,14.5,18.1,14.6z"/>
	<path class="st1" d="M15.2,15.1c-0.5,0.1-0.9,0.2-1.3,0.3c-0.1,0-0.2,0-0.3-0.1c-0.6-0.6-1.2-1.1-1.8-1.7c-0.1-0.1-0.5-0.1-0.6,0
		c-0.1,0.1,0,0.1,0,0.2c0.1,0.6,0.3,1.2,0.4,1.9c0,0.2,0,0.2-0.2,0.3c-0.3,0.1-0.6,0.1-0.9,0.2c-0.1,0-0.2,0-0.2-0.1
		c-0.4-1.8-0.8-3.6-1.2-5.4c0-0.1,0-0.2,0.1-0.2c0.7-0.2,1.4-0.3,2-0.5c0.7-0.1,1.5,0.1,1.9,0.8c0.4,0.7,0.3,1.5-0.3,2
		c-0.1,0.1-0.1,0.1,0,0.2c0.7,0.6,1.4,1.3,2.2,1.9C15.1,15,15.1,15,15.2,15.1z"/>
	<path class="st1" d="M5,14.4c-0.2-0.9-0.4-1.8-0.6-2.7c0-0.2,0-0.2,0.1-0.3c0.7-0.1,1.3-0.3,2-0.4c0.8-0.2,1.6,0.1,2,0.9
		c0.5,1,0.2,2-0.8,2.5c-0.3,0.2-0.7,0.2-1,0.3c-0.2,0-0.2,0.1-0.1,0.2c0.2,0.6,0.3,1.3,0.4,1.9C7,16.9,7,17,6.8,17
		c-0.3,0.1-0.6,0.1-0.9,0.2c-0.1,0-0.2,0-0.2-0.1C5.5,16.2,5.2,15.3,5,14.4z"/>
	<path class="st0" d="M15.7,11.9c-0.3-1,0.4-2,1.3-2.2c0.8-0.2,1.7,0.3,2,1.1c0.2,0.5,0.2,1.1,0,1.6c-0.2,0.4-0.5,0.6-0.9,0.8
		c-0.7,0.3-1.2,0.1-1.8-0.3C15.9,12.7,15.7,12.4,15.7,11.9z"/>
	<path class="st0" d="M10.7,11.9c0-0.2-0.1-0.4-0.1-0.5c0-0.1,0-0.1,0-0.2c0.3-0.1,0.7-0.2,1-0.1c0.4,0.1,0.6,0.7,0.3,1.1
		c-0.3,0.3-0.7,0.3-1,0.4c-0.1,0-0.1-0.1-0.1-0.1C10.8,12.3,10.7,12.1,10.7,11.9z"/>
	<path class="st0" d="M6.1,13c0-0.2-0.1-0.4-0.1-0.5c0-0.1,0-0.1,0.1-0.1c0.3-0.1,0.7-0.2,1-0.1c0.3,0.1,0.5,0.8,0.2,1.1
		c-0.3,0.3-0.6,0.3-1,0.4c-0.1,0-0.1-0.1-0.1-0.1C6.2,13.3,6.1,13.1,6.1,13z"/>
</g>
<g transform="matrix(1,0,0,1,-336,-144)">
	<g>
		<g transform="matrix(1,0,0,2,3.99999,-190)">
			<path d="M342.2,182.2v6c0,0.3-0.4,0.5-1,0.5h-4c-0.6,0-1-0.2-1-0.5v-6c0-0.3,0.4-0.5,1-0.5h4
				C341.7,181.7,342.2,181.9,342.2,182.2z"/>
		</g>
		<g transform="matrix(1,0,0,3,16,-380)">
			<path d="M342.2,182.1v6.7c0,0.1-0.1,0.2-0.3,0.2c-0.2,0.1-0.4,0.1-0.7,0.1h-4c-0.3,0-0.5,0-0.7-0.1s-0.3-0.1-0.3-0.2v-6.7
				c0-0.1,0.1-0.2,0.3-0.2c0.2-0.1,0.4-0.1,0.7-0.1h4c0.3,0,0.5,0,0.7,0.1C342,182,342.2,182,342.2,182.1z"/>
		</g>
		<g transform="matrix(1,0,0,1,3.99999,0)">
			<path class="st2" d="M360.2,155.4h-3c-0.4,0-0.7-0.2-0.9-0.6c-0.2-0.3-0.1-0.7,0.1-1l6-8c0.2-0.3,0.5-0.4,0.8-0.4
				s0.6,0.1,0.8,0.4l6,8c0.2,0.3,0.3,0.7,0.1,1c-0.2,0.3-0.5,0.6-0.9,0.6h-3c0,0,0,24,0,31c0,0.6-0.4,1-1,1h-4c-0.6,0-1-0.4-1-1
				V155.4z"/>
		</g>
	</g>
</g>
</svg>
