<svg xmlns="http://www.w3.org/2000/svg" viewBox="0 0 37.02 37.03"><defs><style>.cls-1{isolation:isolate;}.cls-2{mix-blend-mode:multiply;}</style></defs><title>Plan de travail 48</title><g class="cls-1"><g id="Layer_1" data-name="Layer 1"><path class="cls-2" d="M34.58,12.58c0,.08,0,.15,0,.23s0,.2,0,.31,0,.46,0,.71a2.18,2.18,0,0,0,0,.25c0,.22,0,.46,0,.69L31.91,12c.46,0,.87.07,1.17.12A6.37,6.37,0,0,1,34.58,12.58Zm-6.26-.7s-.05,0-.08.06l-.09,0a1.91,1.91,0,0,1-.67.14,2,2,0,0,1-.87-.25Z"/><path d="M27.5,8.39h0a1.84,1.84,0,0,1,1.84,1.86,1.89,1.89,0,0,1-1.88,1.86,1.86,1.86,0,0,1,0-3.72Z"/><path d="M34.48,10.78c.23,2.44.38,14-.34,16.66a7.92,7.92,0,0,1-6.84,6.19,74.94,74.94,0,0,1-8.55.35,52.76,52.76,0,0,1-8.61-.46A7.79,7.79,0,0,1,4,26.76c-.41-2.61-.45-14.75.3-17.39a7.9,7.9,0,0,1,6.75-6A60.12,60.12,0,0,1,18.79,3c2.89,0,5.81.08,7.56.17A8.57,8.57,0,0,1,32,5.49,8.2,8.2,0,0,1,34.48,10.78Zm-3,15.47A110.65,110.65,0,0,0,31.69,11,5.2,5.2,0,0,0,27.05,6.1a72,72,0,0,0-7.75-.29c-3.08,0-6.15.08-7.5.23a5.3,5.3,0,0,0-5,4.66,105.24,105.24,0,0,0-.11,15.64,5,5,0,0,0,3.82,4.38,47.75,47.75,0,0,0,8.34.46c3.25,0,6.44-.1,7.64-.23a5.3,5.3,0,0,0,5-4.7"/><path d="M19.24,10.55a7.88,7.88,0,0,1,7.88,8,8,8,0,0,1-8,7.94,7.87,7.87,0,0,1-7.88-8A8,8,0,0,1,19.24,10.55Zm-.12,13.08a5.2,5.2,0,0,0,5.19-5.09,5.1,5.1,0,0,0-5-5.19h-.05A5.19,5.19,0,0,0,14,18.44a5.09,5.09,0,0,0,5,5.19h0"/></g></g></svg>