<?xml version="1.0" encoding="iso-8859-1"?>
<!-- Generator: Adobe Illustrator 22.0.1, SVG Export Plug-In . SVG Version: 6.00 Build 0)  -->
<svg version="1.1"
	 id="Calque_1" xmlns:cc="http://creativecommons.org/ns#" xmlns:dc="http://purl.org/dc/elements/1.1/" xmlns:inkscape="http://www.inkscape.org/namespaces/inkscape" xmlns:rdf="http://www.w3.org/1999/02/22-rdf-syntax-ns#" xmlns:sodipodi="http://sodipodi.sourceforge.net/DTD/sodipodi-0.dtd" xmlns:svg="http://www.w3.org/2000/svg"
	 xmlns="http://www.w3.org/2000/svg" xmlns:xlink="http://www.w3.org/1999/xlink" x="0px" y="0px" viewBox="0 0 26.458 24.49"
	 style="enable-background:new 0 0 26.458 24.49;" xml:space="preserve">
<g transform="translate(131.02975,-196.70833)">
	<path d="M-117.786,197.154c-0.149,0.002-0.268,0.125-0.266,0.274v0.859c-0.002,0.149,0.117,0.272,0.266,0.274
		c0.149,0.002,0.272-0.117,0.274-0.266c0-0.003,0-0.005,0-0.008v-0.859c0.002-0.149-0.117-0.272-0.266-0.274
		C-117.78,197.154-117.783,197.154-117.786,197.154z M-114.293,198.076c-0.099-0.001-0.19,0.051-0.239,0.137l-0.435,0.744
		c-0.079,0.126-0.041,0.293,0.086,0.372c0.126,0.079,0.293,0.041,0.372-0.086c0.003-0.005,0.006-0.009,0.008-0.014l0.435-0.744
		c0.077-0.128,0.036-0.294-0.092-0.371C-114.199,198.09-114.246,198.076-114.293,198.076L-114.293,198.076z M-121.318,198.076
		c-0.149,0.007-0.265,0.133-0.258,0.282c0.002,0.045,0.015,0.089,0.039,0.128l0.435,0.744c0.072,0.131,0.236,0.178,0.367,0.106
		c0.131-0.072,0.178-0.236,0.106-0.367c-0.002-0.004-0.004-0.008-0.007-0.012l-0.435-0.744
		C-121.121,198.124-121.217,198.071-121.318,198.076z M-117.764,199.458c-1.722-0.013-3.415,0.951-4.228,2.496
		c-0.136,0.242-0.247,0.495-0.335,0.755l-0.151,0.072l-0.326,0.154l-0.326,0.155l-5.165,2.451c-0.086,0.02-0.157,0.081-0.19,0.163
		l-2.202,3.069c-0.106,0.105-0.106,0.276-0.001,0.382c0.019,0.019,0.041,0.036,0.065,0.048l2.121,1.105v5.389
		c0,0.104,0.06,0.199,0.154,0.244l10.423,4.946c0.004,0,0.008,0,0.013,0c0.004,0,0.008,0,0.013,0c0.004,0,0.008,0,0.013,0
		c0.004,0,0.008,0,0.013,0c0.004,0,0.008,0,0.013,0c0.005,0,0.01,0,0.015,0c0.004,0,0.008,0,0.013,0c0.005,0,0.01,0,0.015,0
		c0.005,0,0.01,0,0.015,0c0.004,0,0.008,0,0.013,0c0.004,0,0.008,0,0.013,0c0.004,0,0.008,0,0.013,0c0.005,0,0.01,0,0.015,0
		c0.004,0,0.008,0,0.013,0c0.004,0,0.008,0,0.013,0c0.005,0,0.01,0,0.015,0c0.005,0,0.01,0,0.015,0c0.004,0,0.008,0,0.013,0
		l10.424-4.946c0.094-0.045,0.154-0.14,0.154-0.244v-5.389l2.121-1.105c0.133-0.067,0.186-0.23,0.119-0.363
		c-0.013-0.025-0.029-0.048-0.049-0.068l-2.214-3.087c-0.033-0.069-0.094-0.12-0.167-0.142l-5.177-2.456l-0.326-0.155l-0.326-0.154
		l-0.152-0.072c-0.533-1.571-1.908-2.835-3.565-3.148c-0.25-0.054-0.502-0.088-0.755-0.098c-0.056,0-0.111,0-0.167,0
		L-117.764,199.458z M-117.789,200c0.28,0,0.56,0.029,0.835,0.089c0.004,0,0.008,0,0.013,0c1.823,0.343,3.301,2.052,3.364,3.908
		c0,0.004,0,0.008,0,0.013c0.105,1.611-0.843,3.238-2.284,3.964c-0.006,0.004-0.011,0.008-0.017,0.013
		c-0.318,0.19-0.493,0.494-0.573,0.795c-0.026,0.096-0.041,0.191-0.053,0.286h-2.584c-0.022-0.165-0.058-0.332-0.123-0.494
		c-0.004-0.007-0.008-0.014-0.013-0.021c-0.184-0.369-0.499-0.576-0.779-0.745c-0.28-0.169-0.533-0.311-0.689-0.504
		c-0.008-0.011-0.017-0.021-0.027-0.03c-1.356-1.245-1.703-3.451-0.799-5.054c0-0.004,0-0.008,0-0.013
		c0.706-1.346,2.216-2.206,3.727-2.208L-117.789,200z M-123.849,200.594c-0.149-0.005-0.274,0.111-0.279,0.261
		c-0.004,0.102,0.051,0.197,0.14,0.246l0.754,0.43c0.13,0.074,0.295,0.029,0.369-0.101s0.029-0.295-0.101-0.369l-0.754-0.429
		C-123.759,200.608-123.803,200.595-123.849,200.594L-123.849,200.594z M-111.737,200.594c-0.052-0.002-0.103,0.011-0.147,0.038
		l-0.754,0.429c-0.131,0.071-0.18,0.235-0.109,0.366c0.071,0.131,0.235,0.18,0.366,0.109c0.003-0.002,0.006-0.004,0.009-0.005
		l0.754-0.43c0.131-0.072,0.179-0.236,0.107-0.367C-111.555,200.65-111.642,200.597-111.737,200.594L-111.737,200.594z
		 M-117.82,202.068c-0.027,0-0.053,0-0.08,0c-0.863,0.053-1.526,0.8-1.472,1.66c0.006,0.149,0.131,0.265,0.28,0.26
		s0.265-0.131,0.26-0.28c0-0.005,0-0.009-0.001-0.014c-0.035-0.567,0.393-1.052,0.966-1.087c0.573-0.036,1.059,0.392,1.095,0.959
		c0.013,0.142-0.013,0.277-0.056,0.403c-0.044,0.126-0.113,0.24-0.2,0.339c-0.088,0.098-0.194,0.181-0.314,0.24
		c-0.004,0-0.008,0-0.013,0c-0.519,0.257-0.859,0.797-0.86,1.377c0,0.004,0,0.008,0,0.013c0,0.038,0,0.076,0,0.127
		c0.004,0.149,0.127,0.267,0.277,0.263c0.149-0.004,0.267-0.127,0.263-0.277c0-0.004,0-0.008-0.001-0.012c0-0.047,0-0.081,0-0.111
		c0-0.364,0.236-0.736,0.566-0.896c0.183-0.091,0.345-0.215,0.478-0.365c0.133-0.15,0.238-0.325,0.305-0.518
		c0.067-0.192,0.1-0.401,0.086-0.616c-0.052-0.833-0.758-1.477-1.587-1.468L-117.82,202.068z M-122.499,203.389
		c-0.264,1.529,0.236,3.178,1.391,4.255c0.245,0.3,0.562,0.463,0.824,0.622c0.26,0.157,0.457,0.301,0.567,0.513
		c0.106,0.277,0.097,0.647,0.097,1.037l-7.99-4.002l4.712-2.236l0.326-0.155L-122.499,203.389z M-113.104,203.389l0.073,0.034
		l0.326,0.155l4.712,2.236l-7.996,4.005c0-0.058,0-0.122,0-0.172c0-0.004,0-0.008,0-0.013c-0.013-0.252,0-0.512,0.054-0.721
		c0.056-0.209,0.145-0.359,0.326-0.468c1.634-0.831,2.684-2.636,2.565-4.472c-0.013-0.197-0.027-0.393-0.061-0.585L-113.104,203.389
		z M-128.141,206.151l8.619,4.317c0.037,0.033,0.081,0.055,0.13,0.065l1.296,0.649l-2.055,2.865l-9.94-5.177L-128.141,206.151z
		 M-107.463,206.151l1.95,2.719l-9.94,5.177l-2.055-2.865l1.286-0.644c0.055-0.009,0.105-0.034,0.145-0.072L-107.463,206.151z
		 M-117.881,206.697c-0.149-0.003-0.273,0.115-0.276,0.264c-0.003,0.149,0.115,0.273,0.264,0.276c0.004,0,0.008,0,0.012,0
		c0.149-0.003,0.267-0.127,0.264-0.276C-117.62,206.817-117.737,206.7-117.881,206.697z M-119.068,209.602h2.538
		c0,0.017,0,0.034,0,0.049c0,0.133,0,0.29,0,0.439l-1.269,0.636l-1.274-0.638c0-0.151,0-0.315,0.013-0.486L-119.068,209.602z
		 M-127.956,210.591l7.716,4.018c0.057,0.046,0.13,0.066,0.203,0.057c0.004,0,0.008,0,0.013,0c0.092-0.015,0.17-0.075,0.206-0.16
		l1.742-2.428v8.143l-9.884-4.69L-127.956,210.591z M-107.648,210.591v4.937l-9.884,4.69v-8.143l1.741,2.427
		c0.028,0.067,0.082,0.12,0.149,0.147c0.1,0.046,0.218,0.027,0.298-0.049L-107.648,210.591z"/>
</g>
</svg>
