<?xml version="1.0" encoding="utf-8"?>
<!-- Generator: Adobe Illustrator 22.0.1, SVG Export Plug-In . SVG Version: 6.00 Build 0)  -->
<svg version="1.1" id="Calque_1" xmlns="http://www.w3.org/2000/svg" xmlns:xlink="http://www.w3.org/1999/xlink" x="0px" y="0px"
	 viewBox="0 0 64 40.3" style="enable-background:new 0 0 64 40.3;" xml:space="preserve">
<g>
	<path d="M61.5,1.3c-0.1-0.1-0.3-0.1-0.4-0.1l-9.9,2.4c-0.1,0-0.2,0.1-0.3,0.2c0,0.1-0.1,0.3,0,0.4l0.7,2.1l-4.4,2.4h-1.1
		c-3.8-1.3-6.9-1.7-9.7-1.3c-0.1,0-0.1,0-0.2,0.1l-3.1,2.1l0,0c-4-1-7.6-0.4-10.7,1.8c-0.3,0.2-0.7,0.3-1,0.1L14,8.2l0,0L15,5.7
		c0.1-0.1,0.1-0.3,0-0.4c-0.1-0.1-0.2-0.2-0.3-0.3L3,0.9c-0.2,0-0.3,0-0.4,0.1C2.4,1,2.3,1.2,2.3,1.3v21.2c0,0.3,0.2,0.5,0.5,0.5
		h4.4c0.2,0,0.3-0.1,0.4-0.3l0.6-1.4l5.7,3.5l2.2,3.8l-0.8,1.6c-0.3,0.5-0.3,1.2-0.1,1.8c0.2,0.6,0.6,1.1,1.1,1.4
		c0.3,0.2,0.7,0.3,1.1,0.3c0.2,0,0.4,0,0.6-0.1c-0.2,1.2,0.4,2.4,1.5,3c0.4,0.2,0.9,0.3,1.3,0.3c0.3,0,0.6,0,0.9-0.1
		c0.2-0.1,0.3-0.1,0.5-0.2c0.1,1,0.6,1.8,1.5,2.3c0.4,0.2,0.9,0.3,1.3,0.3c0.7,0,1.3-0.3,1.9-0.7c0.1,0.2,0.2,0.4,0.3,0.6
		c0.5,0.6,1.2,0.9,2.1,1c0,0,0.1,0,0.1,0c0.8,0,1.5-0.4,2-1.1l0.9-1.4c2.1,0.8,3.8,1.2,5.2,1.2c1,0,1.8-0.2,2.4-0.6
		c0.8-0.5,1.2-1.4,1.3-2.5c0.1,0,0.2,0,0.3,0c1,0,1.9-0.2,2.5-0.7c0.7-0.4,1.4-1.3,1.4-3c0.3-0.1,0.6-0.2,0.9-0.4
		c0.8-0.5,1.7-1.5,1.6-3.5c0.1,0,0.3-0.1,0.4-0.2c1-0.5,1.5-1.2,1.6-2.1c0.1-0.8-0.3-1.7-1-2.4l0,0c0.2-0.1,0.5-0.2,0.7-0.4l1.5-1.1
		l5.3-0.1l0.3,1.1c0,0.2,0.2,0.3,0.4,0.3h4.1c0.3,0,0.5-0.2,0.5-0.5v-21C61.7,1.5,61.6,1.4,61.5,1.3z M16.7,32.4
		c-0.3-0.2-0.6-0.5-0.7-0.8c-0.1-0.4-0.1-0.7,0.1-1.1l1.8-3.4c0.3-0.5,0.7-0.8,1.3-0.8c0.2,0,0.4,0,0.6,0.2c0.7,0.4,1,1.2,0.6,1.9
		l-1.8,3.4c-0.2,0.3-0.5,0.6-0.8,0.7C17.4,32.6,17,32.6,16.7,32.4z M21.3,35.7c-0.5,0.2-1,0.1-1.5-0.1C18.9,35.1,18.5,34,19,33
		l2-3.8c0.2-0.5,0.6-0.8,1.1-0.9c0.2-0.1,0.4-0.1,0.6-0.1c0.3,0,0.6,0.1,0.9,0.2c0.9,0.5,1.3,1.6,0.8,2.6l-2,3.8
		C22.2,35.2,21.8,35.6,21.3,35.7z M24,37.9c-0.9-0.5-1.3-1.6-0.8-2.6l2-3.8c0.5-0.9,1.6-1.3,2.6-0.8s1.3,1.6,0.8,2.6l-2,3.8
		C26.1,38,24.9,38.4,24,37.9z M30.5,38.2c-0.3,0.5-0.8,0.8-1.3,0.7c-0.6,0-1.2-0.3-1.5-0.6c-0.2-0.3-0.3-0.7-0.3-1.1l1.8-3.5
		c0.8-0.6,1.9-0.5,2.5,0c0.4,0.3,0.9,0.9,0.4,2L30.5,38.2z M47.8,26.9c-0.7,0.4-1.6,0.4-2.5,0.2c-2.2-0.6-3.9-1.4-5.2-2.3
		c-0.2-0.1-0.5-0.1-0.6,0.1s-0.1,0.5,0.1,0.6c1.5,1,3.2,1.8,5.5,2.4c0.5,0.1,0.9,0.2,1.3,0.2c0.2,0,0.3,0,0.5,0c0,1.2-0.4,2-1.2,2.5
		c-2,1.2-6-0.1-8-1.5c-0.2-0.1-0.5-0.1-0.6,0.1c-0.1,0.2-0.1,0.5,0.1,0.6c1.6,1,4.2,2.1,6.5,2.1c0.2,0,0.4,0,0.6,0
		c0,1-0.3,1.7-1,2.1c-1.5,1-4.5,0.5-8.1-1.3c-0.2-0.1-0.5,0-0.6,0.2c-0.1,0.2,0,0.5,0.2,0.6c2,1,3.8,1.6,5.3,1.8
		c-0.1,0.8-0.3,1.5-0.9,1.8c-1.1,0.8-3.3,0.6-6.5-0.6l0.3-0.4c0.6-1.2,0.3-2.4-0.6-3.2c-0.8-0.6-1.8-0.7-2.7-0.5
		c0-0.3,0-0.7-0.1-1.1c-0.2-0.7-0.7-1.3-1.4-1.7c-0.9-0.5-1.9-0.4-2.6,0c-0.1-1-0.6-1.8-1.5-2.3c-0.8-0.4-1.8-0.4-2.6,0
		c-0.1-0.8-0.5-1.5-1.2-1.8c-0.5-0.3-1.2-0.3-1.8-0.2s-1.1,0.6-1.4,1.2l-0.4,0.8l0,0l-1.9-3.4c0-0.1-0.1-0.1-0.2-0.2l-5.9-3.6
		l5-11.4v0l7.3,3.3c0.2,0.1,0.5,0.2,0.8,0.2c0.4,0,0.8-0.1,1.2-0.4c2.7-1.9,5.8-2.5,9.1-1.9l-3.2,2.1c-0.1,0.1-0.2,0.2-0.2,0.3
		l-2.4,8.3c0,0.1,0,0.3,0,0.4c0.1,0.1,0.2,0.2,0.3,0.2l1.8,0.5c2.2,0.5,4.4-0.7,5.2-2.8l0.7-2l3.5-0.4c0.5,1.3,2.4,5.5,6.2,6.6
		c0.3,0.1,0.6,0.1,0.9,0.1h2.6c0.1,0,0.1,0,0.2,0c0.8,0.7,1.3,1.4,1.2,2.1C48.9,26.1,48.5,26.5,47.8,26.9z M50.9,20.8
		c-0.1,0-0.2,0-0.3,0.1L49,22.1c-0.3,0.2-0.7,0.4-1,0.4c0,0-0.1,0-0.1,0c-0.1,0-0.2,0-0.3,0h-2.6c-0.3,0-0.5,0-0.7-0.1
		c-4-1.2-5.7-6.3-5.7-6.4c-0.1-0.2-0.3-0.3-0.5-0.3l-4.2,0.4c-0.2,0-0.3,0.1-0.4,0.3l-0.8,2.3c-0.6,1.7-2.4,2.7-4.1,2.2l-1.4-0.3
		l2.2-7.7l3.9-2.6c0,0,0,0,0,0l0,0l3.2-2.1c2.6-0.3,5.5,0.1,9.2,1.3c0,0,0.1,0,0.2,0h1.3c0.1,0,0.2,0,0.2,0l4.3-2.4L56,20.7
		L50.9,20.8z"/>
</g>
</svg>
