<?xml version="1.0" encoding="iso-8859-1"?>
<!-- Generator: Adobe Illustrator 22.0.1, SVG Export Plug-In . SVG Version: 6.00 Build 0)  -->
<svg version="1.1" id="Calque_1" xmlns="http://www.w3.org/2000/svg" xmlns:xlink="http://www.w3.org/1999/xlink" x="0px" y="0px"
	 viewBox="0 0 75.5 83" style="enable-background:new 0 0 75.5 83;" xml:space="preserve">
<path d="M37.75,13.25c0.47,0,0.86-0.38,0.86-0.86V2.85c0-0.47-0.38-0.86-0.86-0.86s-0.86,0.38-0.86,0.86v9.54
	C36.89,12.87,37.28,13.25,37.75,13.25z"/>
<path d="M24.8,16.72c0.15,0,0.29-0.04,0.43-0.12c0.41-0.24,0.55-0.76,0.31-1.17l-4.77-8.26c-0.24-0.41-0.76-0.55-1.17-0.31
	c-0.41,0.24-0.55,0.76-0.31,1.17l4.77,8.26C24.21,16.57,24.5,16.72,24.8,16.72z"/>
<path d="M15.74,24.61l-8.26-4.77c-0.41-0.24-0.93-0.1-1.17,0.31s-0.1,0.93,0.31,1.17l8.26,4.77c0.14,0.08,0.28,0.12,0.43,0.12
	c0.29,0,0.58-0.15,0.74-0.43C16.29,25.37,16.15,24.84,15.74,24.61z"/>
<path d="M12.7,38.3c0-0.47-0.38-0.86-0.86-0.86H2.3c-0.47,0-0.86,0.38-0.86,0.86s0.38,0.86,0.86,0.86h9.54
	C12.32,39.16,12.7,38.77,12.7,38.3z"/>
<path d="M14.89,50.51l-8.26,4.77c-0.41,0.24-0.55,0.76-0.31,1.17c0.16,0.27,0.45,0.43,0.74,0.43c0.15,0,0.29-0.04,0.43-0.12
	L15.74,52c0.41-0.24,0.55-0.76,0.31-1.17C15.82,50.42,15.29,50.27,14.89,50.51z"/>
<path d="M68.87,55.28l-8.26-4.77c-0.41-0.24-0.93-0.1-1.17,0.31s-0.1,0.93,0.31,1.17l8.26,4.77c0.14,0.08,0.28,0.12,0.43,0.12
	c0.29,0,0.58-0.15,0.74-0.43C69.42,56.04,69.28,55.52,68.87,55.28z"/>
<path d="M73.2,37.45h-9.54c-0.47,0-0.86,0.38-0.86,0.86s0.38,0.86,0.86,0.86h9.54c0.47,0,0.86-0.38,0.86-0.86
	S73.67,37.45,73.2,37.45z"/>
<path d="M68.02,19.84l-8.26,4.77c-0.41,0.24-0.55,0.76-0.31,1.17c0.16,0.27,0.45,0.43,0.74,0.43c0.15,0,0.29-0.04,0.43-0.12
	l8.26-4.77c0.41-0.24,0.55-0.76,0.31-1.17C68.95,19.74,68.43,19.6,68.02,19.84z"/>
<path d="M55.9,6.87c-0.41-0.24-0.93-0.1-1.17,0.31l-4.77,8.26c-0.24,0.41-0.1,0.93,0.31,1.17c0.14,0.08,0.28,0.12,0.43,0.12
	c0.29,0,0.58-0.15,0.74-0.43l4.77-8.26C56.45,7.62,56.31,7.1,55.9,6.87z"/>
<g>
	<path style="fill:none;stroke:#000000;stroke-linecap:round;stroke-miterlimit:10;" d="M37.857,42.519h5.495
		c0.141-0.041,0.099-0.168,0.099-0.168c-0.376-0.741-0.593-1.571-0.593-2.233c0-1.611,1.324-2.905,2.925-2.905
		c1.621,0,2.945,1.304,2.945,2.905c0,0.662-0.217,1.492-0.593,2.233c0,0-0.069,0.168,0.089,0.168c1.492,0,5.969,0,5.969,0
		c0.217-1.087,0.326-2.184,0.326-3.301c0.01-9.299-7.422-16.899-16.662-17.235"/>
	<path style="fill:none;stroke:#000000;stroke-linecap:round;stroke-miterlimit:10;" d="M37.59,42.51v-5.534
		c-0.001-0.059-0.019-0.068-0.049-0.049c-0.83,0.356-1.66,0.573-2.322,0.573c-1.621,0-2.925-1.304-2.925-2.925
		c0-1.611,1.304-2.925,2.925-2.925c0.662,0,1.492,0.217,2.214,0.593c0.12,0.048,0.128-0.124,0.148-0.267v-9.981
		c-9.25,0.336-16.662,7.936-16.662,17.255c0,1.117,0.099,2.204,0.306,3.261"/>
	<path style="fill:none;stroke:#000000;stroke-miterlimit:10;" d="M37.559,42.89c0,0-4.17,0.002-5.56,0c-0.18,0-0.09,0.17-0.09,0.17
		c0.36,0.74,0.58,1.58,0.58,2.24c0,1.64-1.32,2.96-2.96,2.96c-1.63,0-2.96-1.32-2.96-2.96c0-0.67,0.22-1.51,0.6-2.24
		c0,0,0.113-0.17-0.1-0.17c-1.435,0-5.74,0-5.74,0c0.75,2.79,2.17,5.36,4.21,7.5c3.41,3.56,5.34,8.32,5.48,13.42h6.54"/>
	<path style="fill:none;stroke:#000000;stroke-miterlimit:10;" d="M37.869,42.92v5.55c0.003,0.107,0.145,0.116,0.15,0.09
		c0.74-0.36,1.58-0.58,2.24-0.58c1.64,0,2.96,1.32,2.96,2.96c0,1.63-1.32,2.96-2.96,2.96c-0.67,0-1.51-0.22-2.24-0.6
		c0,0-0.17-0.057-0.17,0.1c0,2.6,0,10.4,0,10.4h6.57c0.14-5.1,2.07-9.86,5.48-13.42c2.02-2.12,3.47-4.761,4.22-7.531"/>
</g>
<rect x="30.57" y="65.09" width="14.36" height="3.41"/>
<rect x="30.57" y="69.78" width="14.36" height="3.41"/>
<path d="M30.57,75.03c0,1.57,1.28,2.86,2.86,2.86h8.65c1.58,0,2.86-1.28,2.86-2.86v-0.57H30.57V75.03z"/>
<path d="M37.74,82c1.69,0,3.1-1.23,3.41-2.82h-6.8C34.64,80.77,36.07,82,37.74,82z"/>
</svg>
